<svg xmlns="http://www.w3.org/2000/svg" width="64" height="64" viewBox="0 0 64 64">
	<title>
		icon-api
	</title>
	<circle fill="#D6D6D6" cx="32" cy="44" r="20"/>
	<g fill="none" stroke="#D6252C" stroke-width="2">
		<circle cx="32" cy="20" r="19"/>
		<path d="M36 16c0-2.21-1.79-4-4-4s-4 1.79-4 4 2 3 4 4 4 1.79 4 4-1.79 4-4 4-4-1.79-4-4M32 12V9M32 28v3M14 45l-7-7v-1c0-1.656 1.344-3 3-3h1l10 10c2 2 2 5 2 5v8H12v-2s0-2-2-4l-7-7c-2-2-2-4-2-4V24c0-1.656 1.344-3 3-3s3 1.344 3 3v8M50 45l7-7v-1c0-1.656-1.344-3-3-3h-1L43 44c-2 2-2 5-2 5v8h11v-2s0-2 2-4l7-7c2-2 2-4 2-4V24c0-1.656-1.344-3-3-3s-3 1.344-3 3v8M39 64v-6c0-.553.447-1 1-1h13c.553 0 1 .447 1 1v6M10 64v-6c0-.553.447-1 1-1h13c.553 0 1 .447 1 1v6M22 20h2M40 20h2"/>
		<circle cx="32" cy="20" r="15"/>
	</g>
</svg>