<svg xmlns="http://www.w3.org/2000/svg" width="64" height="64" viewBox="0 0 64 64">
  <g fill="none" fill-rule="evenodd" transform="translate(0 1)">
    <path fill="#D6D6D6" fill-rule="nonzero" d="M40,43 C40,54.046 31.046,63 20,63 C8.954,63 0,54.046 0,43 C0,31.949 8.954,23 20,23 C31.046,23 40,31.949 40,43 Z"/>
    <g stroke="#D6252C" stroke-width="2">
      <path d="M32 21L32 23M32 25L32 27M6 3L6 11 14 24 20 24C21.656 24 23 25.344 23 27L23 35"/>
      <circle cx="9" cy="3" r="3"/>
      <polyline points="52 9 46 18 18 18 12 9"/>
      <path d="M58,3 L58,11 L50,24 L44,24 C42.344,24 41,25.344 41,27 L41,35"/>
      <circle cx="55" cy="3" r="3"/>
      <path d="M56,53 L63,57 L63,59 C63,60.657 62,62 61,62 L3,62 C2,62 1,60.657 1,59 L1,57 L8,53"/>
      <polyline points="35 53 43 57 43 57 50 53"/>
      <polyline points="14 53 21 57 21 57 29 53"/>
      <path d="M16 47.5C16 51 14.037 54 11 54 7.963 54 6 51 6 47.5 6 44 7 42 11 42 15 42 16 44 16 47.5zM37 47.5C37 51 35.037 54 32 54 28.963 54 27 51 27 47.5 27 44 28 42 32 42 36 42 37 44 37 47.5zM58 47.5C58 51 56.037 54 53 54 49.963 54 48 51 48 47.5 48 44 49 42 53 42 57 42 58 44 58 47.5zM21 57L21 60M43 57L43 60"/>
      <circle cx="32" cy="8" r="6"/>
      <path d="M0,38 L64,38"/>
    </g>
  </g>
</svg>
