<svg xmlns="http://www.w3.org/2000/svg" width="250" height="68.834" viewBox="0 0 187.086 51.512"><g fill-rule="evenodd" clip-rule="evenodd"><path fill="#CC2229" d="M0 44.76L.05 6.776 19.685.043c.292-.097.705 0 .997 0 .924 0 1.798.486 2.333 1.215l8.02 11.034c.51.73 1.434 1.215 2.333 1.215.315 0 .655-.073.922-.17l19.686-6.562V44.76l-19.71 6.71c-.267.096-.582 0-.898 0-.9 0-1.798-.463-2.333-1.216l-8.02-10.985c-.535-.755-1.41-1.217-2.333-1.217-.292 0-.656.073-.923.146L0 44.76z"/><path d="M74.83 20.847c.535 0 1.093-.073 1.58-.17 2.065-.316 3.646-2.114 3.646-4.23v-.07c-.122-1.873-1.385-3.525-3.16-4.084.73-.267 1.41-.753 1.872-1.336.438-.607.68-1.36.68-2.114 0-1.312-.728-2.552-1.87-3.208-.754-.414-1.702-.705-2.6-.753h-4.815l-3.16 1.045V20.85h7.827v-.003zM70.164 7.31H73.714c.535 0 1.143.097 1.58.292.632.316.997.972.997 1.653 0 .778-.486 1.53-1.167 1.823-.39.146-.875.243-1.288.243h-3.672V7.31zm0 11.033V13.7H74.224c1.385 0 2.455.78 2.455 2.237 0 1.045-.705 1.92-1.677 2.212-.558.17-.85.193-1.36.193h-3.476zM77.188 39.584L73.42 33.58l-3.013-4.787-3.403 1.12V44.76h3.28V33.898l3.136 5.055 3.597 5.81h3.45V28.79l-3.28 1.07v9.722M84.527 17.468h6.003l1.045 3.378h3.354L89.265 4.88l-1.75.582-2.236.754-5.08 14.63h3.282l1.045-3.378zm2.99-9.72l.023-.05 2.21 7.34h-4.47l2.236-7.29zM155.274 20.847l.875-2.65H147.374v-4.423H154.06l.898-2.697H147.375V7.48h7.778l.874-2.6h-8.676l-3.23 1.093v14.874H155.272M99.667 9.983l6.733 10.864h3.427V4.88l-3.257 1.093v9.697L99.79 4.88l-3.403 1.14v14.827h3.28V9.983M141.518 39.584l-6.78-10.79-3.404 1.118v14.85h3.282V33.896l6.732 10.864h3.45V28.794l-3.28 1.07v9.72M153.403 29.353l-2.26.753-5.056 14.655h3.28l1.046-3.4H156.415l1.046 3.4h3.38l-5.712-15.967-1.725.56zm0 9.6h-2.26l2.26-7.292v-.07l2.235 7.362h-2.235zM137.678 21.26c1.774-.268 3.354-1.385 4.083-2.965.365-.753.365-1.264.365-2.042V4.88l-3.232 1.068V15.96c0 .78-.072 1.265-.534 1.824-.56.68-1.46 1.143-2.383 1.143-1.143 0-1.652.024-2.527-.875-.584-.583-.996-1.434-.996-2.285V4.88l-3.185 1.068v9.99c0 1.19.072 1.652.655 2.697.68 1.264 2.042 2.26 3.427 2.552 1.605.292 2.746.292 4.326.073zM165.554 28.793l-3.232 1.095-.025 14.873h10.354l.924-2.745h-8.02V28.793M178.29 42.087v-4.423h6.683l.923-2.697h-7.606v-3.573h7.776l.875-2.6h-8.675l-3.232 1.07V44.76h11.155l.898-2.673h-8.796M128.662 32.123c-.802-1.507-2.21-2.82-3.79-3.427-.536-.22-1.217-.39-1.8-.462l-3.427 1.143-3.354 1.118c-1.263 1.24-1.895 2.77-2.113 4.617-.146 1.19-.098 2.114.024 3.306.122.996.51 2.188.948 3.062.778 1.53 2.236 2.795 3.816 3.403.218.097.437.17.68.242 1.7.535 3.378.51 5.128-.194 1.604-.655 3.038-1.895 3.864-3.4.486-.876.875-2.018.973-3.04.07-1.165.096-2.138.023-3.304-.12-1.022-.485-2.188-.97-3.063zm-2.916 7.947c-.413.973-1.216 1.87-2.212 2.31-1.143.534-2.188.582-3.306 0-.194-.122-.413-.244-.583-.39-.68-.51-1.24-1.215-1.58-1.97-.39-.946-.68-2.138-.68-3.23 0-1.094.267-2.285.68-3.258.34-.73.9-1.434 1.58-1.92.194-.17.39-.29.607-.39 1.167-.582 2.14-.558 3.306 0 .972.487 1.774 1.362 2.188 2.358.364.996.656 2.163.656 3.232s-.292 2.287-.656 3.258zM95.658 28.94l-.85 2.527H99.86V44.76h3.208V31.468h4.254l.9-2.674H95.706l-.05.146M109.17 44.76h3.28V28.794l-3.28 1.095V44.76M90.822 28.793l-3.306 1.095-.68.218-5.08 14.655h3.305l1.022-3.4H92.11l1.045 3.4h3.329l-.826-2.38-4.836-13.587zm-3.306 10.16h-.68l.68-2.213 1.58-5.15 2.236 7.362h-3.816zM119.645 21.55c.924 0 1.848-.193 2.916-.558.366-.146.876-.413 1.24-.632l1.92 1.798 1.653-1.75-1.75-1.653c.243-.34.583-.826.778-1.19.827-1.532 1.07-2.94 1.07-4.643 0-1.726-.22-3.208-1.07-4.74-1.264-2.284-3.037-3.45-5.468-3.863l-1.288.412-5.614 1.896c-.413.414-.85 1.02-1.142 1.53-.778 1.386-1.094 3.04-1.094 4.62 0 1.725.29 3.256 1.094 4.81.777 1.508 2.26 2.796 3.84 3.403 1.046.39 1.993.56 2.917.56zm-4.545-8.7c0-1.117.268-2.26.705-3.232.413-.972 1.24-1.847 2.163-2.31.607-.29 1.143-.437 1.677-.437.51 0 1.045.147 1.652.44.948.46 1.774 1.335 2.188 2.308.39 1.045.68 2.163.68 3.28 0 1.265-.314 2.553-.874 3.67l-1.457-1.336-1.677 1.726 1.434 1.337c-.656.438-1.288.632-1.944.607-.534-.024-1.07-.17-1.63-.438-.922-.438-1.748-1.337-2.186-2.333-.438-.97-.73-2.186-.73-3.28z"/></g></svg>